<?xml version="1.0" encoding="UTF-8"?>
<svg xmlns="http://www.w3.org/2000/svg" viewBox="0 0 16 16" width="16px" height="16px">
<g id="surface124531">
<path style=" stroke:none;fill-rule:nonzero;fill:rgb(100%,100%,100%);fill-opacity:1;" d="M 5.753906 14.140625 C 4.589844 13.484375 3.964844 11.832031 4.609375 10.753906 C 5.199219 9.734375 6.917969 9.222656 8.457031 10.164062 C 9.285156 10.671875 10.265625 11.089844 11.460938 11.089844 C 12.566406 11.089844 13.609375 10.433594 14.191406 9.445312 C 14.40625 9.085938 14.5625 8.640625 14.652344 8.339844 C 14.621094 9.386719 14.316406 10.460938 13.734375 11.421875 C 12.261719 13.960938 8.210938 15.546875 5.753906 14.140625 Z M 5.753906 14.140625 "/>
<path style=" stroke:none;fill-rule:nonzero;fill:rgb(100%,100%,100%);fill-opacity:1;" d="M 3.875 2.996094 C 5.035156 2.390625 6.832031 2.601562 7.382812 3.78125 C 7.871094 4.839844 7.875 6.324219 5.886719 7.378906 C 5.035156 7.832031 4.058594 8.378906 3.507812 9.40625 C 2.992188 10.375 2.929688 11.554688 3.507812 12.582031 C 3.722656 12.945312 4.027344 13.339844 4.242188 13.550781 C 3.355469 12.976562 2.59375 12.160156 2.046875 11.132812 C 0.667969 8.644531 1.34375 4.328125 3.875 2.996094 Z M 3.875 2.996094 "/>
<path style=" stroke:none;fill-rule:nonzero;fill:rgb(100%,100%,100%);fill-opacity:1;" d="M 14.332031 6.65625 C 14.332031 7.933594 13.214844 9.332031 11.910156 9.332031 C 10.699219 9.332031 9.488281 8.648438 9.488281 6.386719 C 9.488281 5.433594 9.398438 4.332031 8.792969 3.378906 C 8.214844 2.457031 7.152344 1.859375 5.96875 1.890625 C 5.644531 1.890625 5.289062 1.921875 5 2 C 5.199219 1.90625 5.355469 1.824219 5.671875 1.710938 C 6.363281 1.46875 7.121094 1.355469 7.914062 1.332031 C 10.882812 1.332031 14.300781 3.886719 14.332031 6.65625 Z M 14.332031 6.65625 "/>
</g>
</svg>
